<mxfile host="app.diagrams.net" modified="2024-05-27T11:10:30.876Z" agent="Mozilla/5.0 (Macintosh; Intel Mac OS X 10_15_7) AppleWebKit/537.36 (KHTML, like Gecko) Chrome/125.0.0.0 Safari/537.36" version="24.4.8" etag="TtLIYDDckFKapydC-8YR" type="github">
  <diagram name="페이지-1" id="DI-86W-oWf2epoPYd_Sf">
    <mxGraphModel>
      <root>
        <mxCell id="0" />
        <mxCell id="1" parent="0" />
      </root>
    </mxGraphModel>
  </diagram>
</mxfile>
